<svg id="Layer_1" data-name="Layer 1" xmlns="http://www.w3.org/2000/svg" width="820.03" height="816.2" viewBox="0 0 820.03 816.2">
  <title>Artboard 4</title>
  <g>
    <path d="M778,365.7H72.38c-9.54,0-19.09-.11-28.63,0H42.5A43.32,43.32,0,0,0,12.8,378C5.52,385.29,0,397.24.5,407.7c1,22.76,18.45,42,42,42H748.12c9.54,0,19.09.11,28.63,0H778a43.37,43.37,0,0,0,29.7-12.3c7.28-7.29,12.77-19.24,12.3-29.7-1-22.76-18.45-42-42-42Z"/>
    <path d="M377.8,12,341.23,48.58l-87.09,87.08L148.53,241.27,57.24,332.56C42.48,347.32,27.5,361.89,13,376.85l-.65.65A43.37,43.37,0,0,0,0,407.2c0,10.3,4.58,22.61,12.3,29.7,16.77,15.39,42.8,16.6,59.4,0l36.57-36.58,87.09-87.08L301,207.63l91.29-91.29C407,101.58,422,87,436.55,72.05c.21-.22.43-.44.65-.65a43.37,43.37,0,0,0,12.3-29.7c0-10.3-4.58-22.61-12.3-29.7-16.77-15.39-42.8-16.6-59.4,0Z"/>
    <path d="M437.2,744.5l-36.58-36.57-87.08-87.09L207.93,515.23l-91.29-91.29c-14.76-14.76-29.33-29.74-44.29-44.29-.22-.21-.44-.43-.65-.65A43.32,43.32,0,0,0,42,366.7c-10.3,0-22.61,4.58-29.7,12.3-15.39,16.77-16.6,42.8,0,59.4L48.88,475,136,562.06,241.57,667.67,332.86,759c14.76,14.76,29.33,29.74,44.29,44.29l.65.65a43.37,43.37,0,0,0,29.7,12.3c10.3,0,22.61-4.58,29.7-12.3,15.39-16.77,16.6-42.8,0-59.4Z"/>
  </g>
</svg>
